<svg xmlns="http://www.w3.org/2000/svg" xmlns:xlink="http://www.w3.org/1999/xlink" width="41.6" height="22.9" viewBox="0 0 41.6 22.9">
  <defs>
    <clipPath id="clip-custom_1">
      <rect width="41.6" height="22.9"/>
    </clipPath>
  </defs>
  <g id="custom_1" data-name="custom – 1" clip-path="url(#clip-custom_1)">
    <g id="Group_1" data-name="Group 1">
      <path id="Path_2" data-name="Path 2" d="M4.593.337h7.13l-.067-22.388H6.169L-.248-20.088l1.3,5.363L4.588-15.5ZM19.158-9.827A5.859,5.859,0,0,0,23.419-11.6a5.859,5.859,0,0,0,1.66-4.3v-.062a5.8,5.8,0,0,0-1.64-4.325,5.8,5.8,0,0,0-4.281-1.751,5.8,5.8,0,0,0-4.281,1.751,5.8,5.8,0,0,0-1.64,4.325v.062a5.859,5.859,0,0,0,1.66,4.3,5.859,5.859,0,0,0,4.261,1.769Zm0-8.277c.868,0,1.612.837,1.612,2.139v.062c0,1.333-.806,2.139-1.612,2.139S17.546-14.6,17.546-15.9v-.062c0-1.338.713-2.138,1.612-2.138Zm5.921,6.231L15.2.337h5.588l8.1-10.164,9.945-12.211H33.155ZM34.813.341a5.859,5.859,0,0,0,4.262-1.77,5.859,5.859,0,0,0,1.659-4.306V-5.8a5.8,5.8,0,0,0-1.64-4.325,5.8,5.8,0,0,0-4.281-1.751,5.8,5.8,0,0,0-4.281,1.751A5.8,5.8,0,0,0,28.892-5.8v.062A5.859,5.859,0,0,0,30.55-1.43,5.859,5.859,0,0,0,34.813.341Zm0-3.937c-.806,0-1.612-.837-1.612-2.139V-5.8c0-1.333.713-2.139,1.612-2.139.868,0,1.612.837,1.612,2.139v.062c0,1.338-.806,2.138-1.612,2.138Z" transform="translate(0.548 22.299)" fill="rgba(255,255,255,0.85)" stroke="rgba(255,255,255,0.85)" stroke-width="0.5"/>
    </g>
  </g>
</svg>
