<svg xmlns="http://www.w3.org/2000/svg" xmlns:xlink="http://www.w3.org/1999/xlink" width="1920" height="1191" viewBox="0 0 1920 1191">
  <defs>
    <clipPath id="clip-Web_1920_7">
      <rect width="1920" height="1191"/>
    </clipPath>
  </defs>
  <g id="Web_1920_7" data-name="Web 1920 – 7" clip-path="url(#clip-Web_1920_7)">
    <rect width="1920" height="1191" fill="#fff"/>
    <g id="Group_86" data-name="Group 86" transform="translate(-2 -132)">
      <path id="Path_8" data-name="Path 8" d="M2471.25,88l957.367,452.7L4391.25,88Z" transform="translate(-2469.25 44)" fill="#2e4f71"/>
      <path id="Path_1" data-name="Path 1" d="M960.5-1l959,452h-959Z" transform="translate(-958.5 133)" fill="#007aa7"/>
      <path id="Path_2" data-name="Path 2" d="M1922-1,960.5,451l961.5.1Z" transform="translate(0 133)" fill="#007aa7"/>
      <path id="Path_3" data-name="Path 3" d="M2469.75,89l479.731,452.7L3430.6,89Z" transform="translate(-1989 43)" fill="#1e3140"/>
      <path id="Path_4" data-name="Path 4" d="M960.5,451l959-451h-959Z" transform="translate(-958.5 584)" fill="#c6e5ed"/>
      <path id="Path_5" data-name="Path 5" d="M1922,451,960.5,0H1922Z" transform="translate(0 584)" fill="#c6e5ed"/>
      <path id="Path_6" data-name="Path 6" d="M960.5,0l959,225.149h-959Z" transform="translate(-958.5 358.851)" fill="#4ea4cb"/>
      <path id="Path_7" data-name="Path 7" d="M1921,0,960.5,225.149H1921Z" transform="translate(1 358.851)" fill="#4ea4cb"/>
      <path id="Path_9" data-name="Path 9" d="M2469.75,89l240.029,451.7L2950.5,89Z" transform="translate(-1749 43)" fill="#07111d"/>
      <path id="Path_10" data-name="Path 10" d="M948.135,1.555,1921,0,871.264-143.806Z" transform="matrix(0.839, -0.545, 0.545, 0.839, -650.381, 1630.068)" fill="#e5f0f7"/>
      <path id="Path_11" data-name="Path 11" d="M76.525,0,1049.39,1.555-2.039,146.378Z" transform="matrix(-0.839, -0.545, 0.545, -0.839, 1840.566, 1156.66)" fill="#e5f0f7"/>
      <path id="Path_12" data-name="Path 12" d="M2949.474,540.7l-710.8,462.769,284.372,59.992,301.434-59.992Z" transform="translate(-1989 44)" fill="#f2fafe"/>
      <path id="Path_13" data-name="Path 13" d="M2238.678,540.7l710.8,462.769L2665.1,1063.463l-301.434-59.992Z" transform="translate(-1278 43)" fill="#f2fafe"/>
      <path id="Path_14" data-name="Path 14" d="M3073.527,1001.827,2948.9,539.259l-122.351,462.568,122.351,73.485Z" transform="translate(-1989 44)" fill="#fbfcfe"/>
      <path id="Path_21" data-name="Path 21" d="M22.688-9.682l8.073,19.5,21.9,1.642L37.5,25.847l4.238,22.694-19.047-12-19.374,12L7.542,25.847-9.22,11.459,13.591,9.817Z" transform="matrix(0.914, 0.407, -0.407, 0.914, 1797.781, 242.844)" fill="#fff" opacity="0.752"/>
      <path id="Path_22" data-name="Path 22" d="M13.11-9.682,18.76,3.964,34.088,5.113,23.474,15.182,26.44,31.064,13.11,22.669-.448,31.064,2.511,15.182-9.22,5.113,6.744,3.964Z" transform="matrix(0.819, -0.574, 0.574, 0.819, 1730.474, 488.043)" fill="#fff" opacity="0.754"/>
      <path id="Path_23" data-name="Path 23" d="M29.144-9.682l9.707,23.444,26.335,1.974L46.95,33.036l5.1,27.286L29.144,45.9,5.851,60.321l5.083-27.286L-9.22,15.736l27.426-1.974Z" transform="translate(1834.738 696.976) rotate(35)" fill="#fff" opacity="0.749"/>
      <path id="Path_24" data-name="Path 24" d="M31.48-9.682l10.3,24.871,27.938,2.095L50.369,35.636l5.406,28.947-24.3-15.3L6.769,64.583l5.392-28.947L-9.22,17.284l29.1-2.095Z" transform="translate(61.586 424.848) rotate(-7)" fill="#fff" opacity="0.749"/>
      <path id="Path_25" data-name="Path 25" d="M13.11-9.682,18.76,3.964,34.088,5.113,23.474,15.182,26.44,31.064,13.11,22.669-.448,31.064,2.511,15.182-9.22,5.113,6.744,3.964Z" transform="matrix(0.819, -0.574, 0.574, 0.819, 162.474, 297.043)" fill="#fff" opacity="0.752"/>
      <path id="Path_26" data-name="Path 26" d="M22.688-9.682l8.073,19.5,21.9,1.642L37.5,25.847l4.238,22.694-19.047-12-19.374,12L7.542,25.847-9.22,11.459,13.591,9.817Z" transform="matrix(0.777, -0.629, 0.629, 0.777, 80.614, 782)" fill="#fff" opacity="0.753"/>
      <path id="Path_27" data-name="Path 27" d="M13.728-9.682,19.535,4.341,35.287,5.522,24.379,15.87l3.048,16.321-13.7-8.627L-.2,32.191,2.835,15.87-9.22,5.522,7.186,4.341Z" transform="translate(1644.738 945.976) rotate(35)" fill="#fff"/>
      <path id="Path_28" data-name="Path 28" d="M23.834-9.682l8.363,20.2,22.69,1.7-15.712,14.9,4.39,23.509L23.834,38.205,3.765,50.632,8.144,27.123-9.22,12.218l23.63-1.7Z" transform="translate(124.259 1021.628) rotate(35)" fill="#fff" opacity="0.754"/>
    </g>
  </g>
</svg>
