<svg xmlns="http://www.w3.org/2000/svg" width="352.328" height="265.256" viewBox="0 0 352.328 265.256"><defs><style>.a{fill:#2f2e41;}.b{fill:#f2f2f2;}.c{fill:#3f3d56;}.d{fill:#ff6584;}.e{fill:#3d565b;}.f{fill:#6c63ff;}.g,.j{fill:#001a7a;}.g{opacity:0.742;}.h{fill:#fbbebe;}.i{opacity:0.1;}.k{fill:#f1f1f1;}</style></defs><path class="a" d="M883.215,141.4c-2.634,7.8-6.673,14.905-14.905,14.905S853.869,149.621,853.4,141.4c-.593-10.5,6.483-14.949,14.905-14.905C878.259,126.548,886.341,132.146,883.215,141.4Z" transform="translate(-582.548 -114.729)"/><rect class="a" width="29.418" height="37.263" transform="translate(270.857 25.496)"/><path class="b" d="M375.5,372.758H271.048L244.319,498.591H402.228Z" transform="translate(-153.042 -233.497)"/><path class="c" d="M601.092,421.756c0,2.273-14.668,4.226-35.557,5.052-5.787.228-12.049.374-18.611.411q-1.883.014-3.793.014c-32.011,0-57.961-2.451-57.961-5.477s25.95-5.477,57.961-5.477S601.092,418.73,601.092,421.756Z" transform="translate(-351.906 -296.25)"/><rect class="c" width="142.769" height="0.913" transform="translate(103.135 265.061) rotate(-77.993)"/><rect class="c" width="0.913" height="142.769" transform="translate(248.74 125.602) rotate(-11.992)"/><rect class="a" width="352.328" height="0.913" transform="translate(0 264.246)"/><path class="d" d="M588.525,399.511l-1.874-.614c-6.689-2.255-11.084-3.7-12.65-7.224a5.491,5.491,0,0,1,2.811-7.359,5.973,5.973,0,0,1,5.019.107,5.973,5.973,0,0,1,3.288-3.793,5.491,5.491,0,0,1,7.342,2.855c1.565,3.529-.316,7.753-3.133,14.226Z" transform="translate(-407.23 -273.606)"/><path class="d" d="M669.075,434.774c-5.787.228-12.049.374-18.611.411a5.619,5.619,0,0,1,2.405-2.008,5.963,5.963,0,0,1,5.016.109,5.988,5.988,0,0,1,3.291-3.792,5.493,5.493,0,0,1,7.343,2.857A6.592,6.592,0,0,1,669.075,434.774Z" transform="translate(-455.447 -304.217)"/><path class="d" d="M608.139,261.226l-.771-.582c-2.742-2.108-4.55-3.474-4.715-5.359a2.691,2.691,0,0,1,2.472-2.964,2.894,2.894,0,0,0,4.436-.388,2.691,2.691,0,0,1,2.949,2.49c.165,1.884-1.379,3.543-3.713,6.1Z" transform="translate(-425.489 -193.295)"/><path class="d" d="M639.9,178.157l-.771-.582c-2.742-2.108-4.55-3.474-4.715-5.359a2.691,2.691,0,0,1,2.472-2.964,2.894,2.894,0,0,0,4.436-.388,2.691,2.691,0,0,1,2.949,2.49c.165,1.884-1.379,3.543-3.713,6.1Z" transform="translate(-445.384 -141.26)"/><path class="d" d="M654.484,319.479l-.286-1.624c-.974-5.823-1.645-9.633.34-12.178a4.593,4.593,0,0,1,6.536-.829,5,5,0,0,1,1.9,3.744,5,5,0,0,1,4.094.93,4.593,4.593,0,0,1,.789,6.541c-1.985,2.546-5.843,2.824-11.728,3.3Z" transform="translate(-457.195 -225.82)"/><path class="a" d="M250.771,632.683l-.811-.419c10.534-20.366,4.9-46.814-1.679-65.414a200.484,200.484,0,0,0-17.013-35.906l.771-.488a201.512,201.512,0,0,1,17.1,36.089C255.782,585.316,261.454,612.028,250.771,632.683Z" transform="translate(-192.861 -367.771)"/><rect class="a" width="32.942" height="0.912" transform="translate(59.8 195.253) rotate(-79.645)"/><rect class="a" width="0.913" height="44.886" transform="matrix(0.732, -0.681, 0.681, 0.732, 25.68, 191.079)"/><rect class="a" width="26.474" height="0.913" transform="matrix(0.586, -0.81, 0.81, 0.586, 65.809, 248.009)"/><circle class="e" cx="4.564" cy="4.564" r="4.564" transform="translate(63.894 145.13)"/><circle class="c" cx="4.564" cy="4.564" r="4.564" transform="translate(14.148 180.271)"/><circle class="c" cx="4.564" cy="4.564" r="4.564" transform="translate(34.229 184.835)"/><circle class="e" cx="4.564" cy="4.564" r="4.564" transform="translate(25.101 202.634)"/><circle class="c" cx="4.564" cy="4.564" r="4.564" transform="translate(82.149 214.044)"/><circle class="c" cx="4.564" cy="4.564" r="4.564" transform="translate(67.088 219.064)"/><circle class="c" cx="4.564" cy="4.564" r="4.564" transform="translate(77.585 233.668)"/><circle class="c" cx="4.564" cy="4.564" r="4.564" transform="translate(29.665 150.607)"/><path class="f" d="M930.789,237.552h2.5a22.275,22.275,0,0,1,3.336,18.35c-2.78,10.565-.556,12.511-.556,12.511s3.619,11.441-.273,28.678,3.609,21.922,3.609,21.922l-6.951-13.9-3.892-36.7Z" transform="translate(-629.65 -184.295)"/><path class="g" d="M930.789,237.59h2.5a22.275,22.275,0,0,1,3.336,18.349c-2.78,10.565-.556,12.511-.556,12.511s3.619,11.441-.273,28.678,3.609,21.922,3.609,21.922l-6.951-13.9-3.892-36.7Z" transform="translate(-629.65 -184.319)"/><path class="h" d="M885.438,201.383s-2.224,8.9-1.112,8.9,5,4.726,5,4.726l2.5,9.175-1.946,6.673-6.673-1.39-8.341-9.175-2.5-2.5-2.224-8.063s2.78-3.336.834-6.117S885.438,201.383,885.438,201.383Z" transform="translate(-593.057 -161.61)"/><path class="i" d="M885.438,201.383s-2.224,8.9-1.112,8.9,5,4.726,5,4.726l2.5,9.175-1.946,6.673-6.673-1.39-8.341-9.175-2.5-2.5-2.224-8.063s2.78-3.336.834-6.117S885.438,201.383,885.438,201.383Z" transform="translate(-593.057 -161.61)"/><path class="h" d="M699.873,233.342l-6.117-10.009s-6.6-14.609-11.329-9.326,7.159,16,7.159,16l6.116,8.063Z" transform="translate(-474.773 -168.825)"/><path class="h" d="M890.482,488.965l-4.448,32.529s.556,2.5-5,11.677-20.574,29.192-20.574,29.192l-4.448-8.341s5.282-26.412,14.457-31.973l-1.112-40.035Z" transform="translate(-584.2 -337.427)"/><path class="i" d="M890.482,488.965l-4.448,32.529s.556,2.5-5,11.677-20.574,29.192-20.574,29.192l-4.448-8.341s5.282-26.412,14.457-31.973l-1.112-40.035Z" transform="translate(-584.2 -337.427)"/><path class="a" d="M832.234,665.827,838.35,677.5s-5,14.179-3.058,15.569,4.448,13.9-.834,12.511-9.453-6.951-9.453-7.785,3.058-12.511,1.39-15.291a13.5,13.5,0,0,0-2.78-3.614l-4.17,6.951-1.39-.834,6.951-11.677s.834-2.224,4.17-3.614Z" transform="translate(-560.426 -452.568)"/><path class="i" d="M832.234,665.827,838.35,677.5s-5,14.179-3.058,15.569,4.448,13.9-.834,12.511-9.453-6.951-9.453-7.785,3.058-12.511,1.39-15.291a13.5,13.5,0,0,0-2.78-3.614l-4.17,6.951-1.39-.834,6.951-11.677s.834-2.224,4.17-3.614Z" transform="translate(-560.426 -452.568)"/><path class="h" d="M854.967,484.35s2.159,30.749-2.567,38.812V563.2l-6.395.834s-10.843-21.686-6.117-42.537-6.951-39.479-6.951-39.479Z" transform="translate(-569.749 -337.427)"/><circle class="h" cx="11.677" cy="11.677" r="11.677" transform="translate(271.947 23.231)"/><path class="j" d="M789.629,238.5l-11.677-14.735-6.673-4.448-2.78,3.614-7.785,2.224s-5,1.112-10.287,7.229-14.735,9.731-14.735,9.731l-7.785-1.39s-9.175-4.17-9.175-5.282-8.063,7.507-6.117,10.843,6.117,7.507,8.341,9.731,3.058,8.619,16.681,6.673,18.628-8.619,18.628-8.619,2.5,12.789,9.731,15.291,30.86,4.17,30.86,4.17l5-16.681s5.56-7.229-1.946-17.793a69.721,69.721,0,0,0-.951-9.84,6.5,6.5,0,0,0-1.273-3.227c-1.946-1.668-12.233-4.448-12.233-4.448s1.668,5.56,2.5,5.838S790.742,237.113,789.629,238.5Z" transform="translate(-494.19 -172.874)"/><path class="a" d="M811.234,402.715c14-.973,22.153,1.321,25.789,3.069a9.219,9.219,0,0,1,1.9,1.151c.267.225.395.4.395.506,0,.834,19.184,2.5,26.134.834s-4.726-37.533-7.785-40.591-1.41-14.251-1.41-14.251-6.1-1.318-7.765-.762-10.287-.834-13.345-2.5-6.951-.556-9.453-1.112a1.572,1.572,0,0,0-1.963.709,4.807,4.807,0,0,1-1.9,1.921c-5.9,3.4-10.64,26.91-14.207,39.907C803.727,405.773,811.234,402.715,811.234,402.715Z" transform="translate(-553.188 -254.096)"/><path class="a" d="M872.026,692.617l1.112,6.117s5.838,8.341,4.17,15.291c0,0,1.39,9.175,6.395,11.677s.834,8.341-3.892,8.063-9.175.278-9.731-1.112-3.892-15.013-3.892-15.013l-.913,15.942-2.78.278.913-18.444s-2.224-4.17.834-11.121l-.772-10.669S871.192,695.4,872.026,692.617Z" transform="translate(-588.263 -469.349)"/><path class="i" d="M888.2,472.329a9.221,9.221,0,0,1,1.9,1.151c.147-2.627,1-18.516-.022-18.261Z" transform="translate(-604.366 -320.64)"/><path class="a" d="M850.005,143.511s-.129-.72-5.187,1.177-8.089,15.893-5.56,24.111a7.531,7.531,0,0,1-1.163,7.371,12.177,12.177,0,0,0,4.317,18.912q.313.137.639.27l3.161,1.9a14.457,14.457,0,0,1-2.013-12.085,34.773,34.773,0,0,0,.628-17.8c-.231-.993-.494-2.017-.793-3.062-2.529-8.851-1.3-7.829,7.552-16.68a56.259,56.259,0,0,0,9.483,5.69c4.425,1.9,8.219,3.793,5.058,10.115s-10.747,12.012-5.69,20.231,5.69,5.058,5.058,8.219h0l-.632,3.161,3.793-3.793-2.529,5.058s8.219,0,10.747-6.322l1.264,1.264s5.058-8.851-4.425-17.069c0,0-3.161-1.9,1.264-8.219s1.027-19.914-4.663-22.443S850.005,143.511,850.005,143.511Z" transform="translate(-571.216 -124.684)"/><circle class="a" cx="5.884" cy="5.884" r="5.884" transform="translate(279.879 3.138)"/><path class="a" d="M872.488,100.884a5.884,5.884,0,0,1,5.295-5.854c-.193-.019-.389-.03-.588-.03a5.884,5.884,0,0,0,0,11.767c.2,0,.395-.01.588-.03A5.884,5.884,0,0,1,872.488,100.884Z" transform="translate(-593.786 -95)"/><path class="d" d="M680.213,212.362l-.771-.582c-2.742-2.108-4.55-3.474-4.715-5.359a2.691,2.691,0,0,1,2.472-2.964,2.894,2.894,0,0,0,4.436-.388,2.691,2.691,0,0,1,2.949,2.49c.165,1.884-1.379,3.543-3.713,6.1Z" transform="translate(-470.636 -162.686)"/><circle class="k" cx="6.734" cy="6.734" r="6.734" transform="translate(330.13 177.817)"/><circle class="k" cx="6.734" cy="6.734" r="6.734" transform="translate(143.013 33.144)"/><circle class="k" cx="6.734" cy="6.734" r="6.734" transform="translate(77.75 109.36)"/></svg>