<svg xmlns="http://www.w3.org/2000/svg" width="352.258" height="295.605" viewBox="0 0 352.258 295.605"><defs><style>.a{fill:#3f3d56;}.b{fill:#dfe4e4;}.c{fill:#3d565b;}.d,.k{fill:#151515;}.e{fill:#ff6584;}.f{fill:#ccc;}.g{fill:#f2f2f2;}.h{fill:#001a7a;}.i{fill:#6c63ff;}.j{opacity:0.1;}.k{opacity:0.364;}.l{fill:#fff;}.m{fill:#2f2e41;}.n{fill:#a0616a;}</style></defs><path class="a" d="M362.587,823.855c0,5.765-35.665,10.435-79.736,10.465h-.4c-21.512,0-41.047-1.107-55.441-2.9-.616-.082-1.224-.159-1.818-.241-2.447-.323-4.735-.672-6.842-1.034-10.069-1.754-16.036-3.929-16.036-6.286,0-1.909,3.9-3.692,10.724-5.235,3.6-.814,8.014-1.555,13.1-2.21q1.4-.187,2.878-.353a480.238,480.238,0,0,1,53.438-2.667c3.99,0,7.915.039,11.749.112C332.884,814.243,362.587,818.594,362.587,823.855Z" transform="translate(-153.843 -538.715)"/><rect class="b" width="118.693" height="60.83" transform="translate(232.936 156.898)"/><rect class="b" width="118.693" height="60.83" transform="translate(85.311 0.371)"/><path class="c" d="M418.46,146.572H299.025V85H418.46Zm-118.693-.742H417.718V85.742H299.766Z" transform="translate(-214.085 -85)"/><rect class="b" width="118.693" height="60.83" transform="translate(232.936 0.371)"/><rect class="b" width="118.693" height="60.83" transform="translate(85.311 78.634)"/><path class="b" d="M0,0H118.693V60.83H0Z" transform="translate(232.936 78.634)"/><rect class="b" width="118.693" height="60.83" transform="translate(85.311 156.898)"/><circle class="b" cx="15.208" cy="15.208" r="15.208" transform="translate(0 15.578)"/><path class="b" d="M202.1,126.311a15.208,15.208,0,1,0,15.208,15.208A15.208,15.208,0,0,0,202.1,126.311Zm6.59,20.858-1.311,1.311-5.464-5.464-5.464,5.464-1.311-1.311L200.6,141.7,194.4,135.5l1.311-1.311,6.206,6.206,6.206-6.206,1.311,1.311-6.206,6.206Z" transform="translate(-144.238 -110.733)"/><path class="c" d="M24.7,66.1,17.71,56.845l1.48-1.118,5.618,7.435L40.563,45.1l1.4,1.219Z" transform="translate(-11.032 -28.096)"/><path class="d" d="M427.131,604.16q-7.235-1.226-13.915-2.105l1.761-3.414c-.594-.206-3.2,1.749-3.2,1.749l2.311-9.909c-2.986.36-4.5,10.478-4.5,10.478l-3.336-3.421,1.615,3.846a308.036,308.036,0,0,0-35.305-2.222l1.507-2.922c-.594-.206-3.2,1.749-3.2,1.749l2.311-9.909c-2.986.36-4.5,10.478-4.5,10.478l-3.336-3.421,1.711,4.073a198.332,198.332,0,0,0-20.3,1.379c1.524-4.552,6.7-8.88,6.7-8.88-3.954,1.176-6.029,3.147-7.112,4.984a79.809,79.809,0,0,1,4.613-27.575s-8.173,17.786-7.131,29.725l.125,2.12c-6.929.992-9.655,3.323-9.655,3.323Z" transform="translate(-236.049 -386.557)"/><circle class="e" cx="13.118" cy="13.118" r="13.118" transform="translate(121.018 83.264)"/><path class="a" d="M726.456,461.032l-1.538-1.23,8.613-7.69H755.37v6.767l-14.149,9.535Z" transform="translate(-451.553 -281.621)"/><path class="f" d="M786.3,456.426v-4.16h-2.9v1.019l-1.082-1.172-7.075,7.69-2.768,1.846-4.292,31.36,6.473,6.473H789.7V460.11Z" transform="translate(-478.504 -281.621)"/><rect class="g" width="23.377" height="39.679" transform="translate(273.366 178.181)"/><rect class="f" width="4.306" height="9.689" transform="translate(282.439 208.171)"/><path class="a" d="M733.7,556.833v-1.538h-1.845v1.538H733.7Z" transform="translate(-455.871 -345.894)"/><path class="a" d="M733.543,562.636h-1.692v1.538H733.7v-1.538Z" transform="translate(-455.871 -350.467)"/><rect class="a" width="1.846" height="1.538" transform="translate(279.056 209.401)"/><rect class="a" width="1.846" height="1.538" transform="translate(279.056 212.169)"/><path class="a" d="M767.14,556.833v-1.538h-1.846v1.538h1.846Z" transform="translate(-476.703 -345.894)"/><path class="a" d="M766.986,562.636h-1.692v1.538h1.846v-1.538Z" transform="translate(-476.703 -350.467)"/><rect class="a" width="1.846" height="1.538" transform="translate(291.667 209.401)"/><rect class="a" width="1.846" height="1.538" transform="translate(291.667 212.169)"/><path class="a" d="M801.4,475.265v-1.538h-1.846v1.538H801.4Z" transform="translate(-498.042 -295.085)"/><path class="a" d="M801.244,481.069h-1.692v1.538H801.4v-1.538Z" transform="translate(-498.042 -299.659)"/><rect class="a" width="1.846" height="1.538" transform="translate(304.586 178.642)"/><rect class="a" width="1.846" height="1.538" transform="translate(304.586 181.41)"/><path class="a" d="M801.4,498.1v-1.538h-1.846V498.1H801.4Z" transform="translate(-498.042 -309.312)"/><path class="a" d="M801.244,503.907h-1.692v1.538H801.4v-1.538Z" transform="translate(-498.042 -313.884)"/><rect class="a" width="1.846" height="1.538" transform="translate(304.586 187.254)"/><rect class="a" width="1.846" height="1.538" transform="translate(304.586 190.023)"/><path class="a" d="M801.4,520.943v-1.538h-1.846v1.538H801.4Z" transform="translate(-498.042 -323.538)"/><path class="a" d="M801.244,526.746h-1.692v1.538H801.4v-1.538Z" transform="translate(-498.042 -328.111)"/><rect class="a" width="1.846" height="1.538" transform="translate(304.586 195.867)"/><rect class="a" width="1.846" height="1.538" transform="translate(304.586 198.635)"/><path class="a" d="M801.4,543.782v-1.538h-1.846v1.538H801.4Z" transform="translate(-498.042 -337.765)"/><path class="a" d="M801.244,549.585h-1.692v1.538H801.4v-1.538Z" transform="translate(-498.042 -342.337)"/><rect class="a" width="1.846" height="1.538" transform="translate(304.586 204.479)"/><rect class="a" width="1.846" height="1.538" transform="translate(304.586 207.248)"/><rect class="a" width="17.84" height="3.691" transform="translate(275.98 180.18)"/><rect class="a" width="17.84" height="3.691" transform="translate(275.98 187.562)"/><rect class="a" width="17.84" height="3.691" transform="translate(275.98 194.944)"/><rect class="a" width="17.84" height="3.691" transform="translate(275.98 202.326)"/><path class="d" d="M342.525,463.55h15.657v-3.779h8.638v3.779h16.2v16.737h-16.2v21.056h-8.638V480.287H342.525l-8.1-9.178Z" transform="translate(-208.314 -286.392)"/><path class="h" d="M429.273,393.567h-.742a36.35,36.35,0,1,0-72.7,0h-.742a37.092,37.092,0,1,1,74.183,0Z" transform="translate(-249.008 -254.102)"/><rect class="a" width="0.948" height="37.445" transform="matrix(1, -0.002, 0.002, 1, 124.558, 102.189)"/><path class="i" d="M399.226,329.534c.085,13.093-9.107,23.768-9.107,23.768s-9.33-10.554-9.415-23.648,9.107-23.768,9.107-23.768S399.141,316.441,399.226,329.534Z" transform="translate(-264.963 -222.591)"/><path class="j" d="M399.226,329.534c.085,13.093-9.107,23.768-9.107,23.768s-9.33-10.554-9.415-23.648,9.107-23.768,9.107-23.768S399.141,316.441,399.226,329.534Z" transform="translate(-264.963 -222.591)"/><rect class="a" width="0.948" height="37.445" transform="matrix(1, -0.002, 0.002, 1, 112.235, 102.213)"/><path class="i" d="M366.546,329.6c.085,13.093-9.107,23.768-9.107,23.768s-9.33-10.554-9.415-23.648,9.107-23.768,9.107-23.768S366.461,316.5,366.546,329.6Z" transform="translate(-244.606 -222.629)"/><rect class="a" width="0.75" height="29.644" transform="translate(175.556 110.068)"/><path class="c" d="M535.458,355.951c.048,10.366-7.245,18.8-7.245,18.8s-7.37-8.369-7.418-18.735,7.245-18.8,7.245-18.8S535.411,345.586,535.458,355.951Z" transform="translate(-352.226 -242.106)"/><circle class="k" cx="25.796" cy="25.796" r="25.796" transform="translate(264.799 84.18)"/><path class="c" d="M744.946,266.171v10.8h-15.7l-2.9,3.479.331-3.479h-1.411v-10.8Z" transform="translate(-451.771 -165.798)"/><rect class="j" width="7.079" height="7.079" transform="translate(286.096 104.092)"/><path class="c" d="M762.813,280.171H782.49v10.8h-1.411l.331,3.479-2.9-3.479h-15.7Z" transform="translate(-475.157 -174.519)"/><ellipse class="j" cx="4.319" cy="0.421" rx="4.319" ry="0.421" transform="translate(270.378 115.549)"/><ellipse class="j" cx="4.919" cy="0.48" rx="4.919" ry="0.48" transform="translate(301.334 121.13)"/><path class="h" d="M834.879,106.031H817.833a3.624,3.624,0,0,0-3.535,2.827l-8.613,38.2a2.929,2.929,0,0,0,2.713,3.569l17.524.863a3.869,3.869,0,0,0,4-3.176l4.886-27.011.363.1.935-5.12-.374-.094,1.364-7.54a2.231,2.231,0,0,0-2.214-2.628Z" transform="translate(-529.64 -98.1)"/><path class="c" d="M822.925,108.216h-1.99a2.5,2.5,0,0,0-2.447,1.97l-8.267,37.892a1.552,1.552,0,0,0,1.415,1.879L829.1,151.1a2.01,2.01,0,0,0,2.109-1.649l7.055-39.165a1.76,1.76,0,0,0-1.732-2.072h-1.888a.831.831,0,0,0-.8.615h0a.733.733,0,0,1-.708.543h-8.961a1.254,1.254,0,0,1-1.25-1.157Z" transform="translate(-532.488 -99.461)"/><circle class="c" cx="24.685" cy="24.685" r="24.685" transform="translate(122.363 6.157)"/><path class="h" d="M445.491,156.654c-4.74,0-15.206-4.868-24.514-10.569-11.551-7.075-22.769-16.322-20.807-19.524.554-.9,1.928-1.142,4.2-.724l-.163.887c-1.76-.324-2.951-.211-3.269.308-.464.757.559,2.954,4.817,6.851a106.9,106.9,0,0,0,15.692,11.432,106.933,106.933,0,0,0,17.314,8.784c5.407,2.024,7.829,1.935,8.292,1.179.318-.52-.124-1.633-1.213-3.056l.716-.548c1.407,1.837,1.821,3.17,1.266,4.075A2.555,2.555,0,0,1,445.491,156.654Z" transform="translate(-276.948 -110.313)"/><circle class="l" cx="5.049" cy="5.049" r="5.049" transform="translate(138.952 13.105)"/><circle class="l" cx="3.366" cy="3.366" r="3.366" transform="translate(142.098 42.467)"/><circle class="l" cx="3.366" cy="3.366" r="3.366" transform="translate(153.689 30.927)"/><path class="h" d="M809.935,561.654H690.5V500.082H809.935Zm-118.693-.742H809.193V500.824H691.242Z" transform="translate(-457.935 -343.555)"/><path class="h" d="M807.968,355.1H688.533V293.525H807.968Zm-118.693-.742H807.226V294.266H689.275Z" transform="translate(-455.71 -214.89)"/><path class="a" d="M297.179,780.549c2.025,7.485,8.961,12.121,8.961,12.121s3.653-7.5,1.628-14.986-8.961-12.121-8.961-12.121S295.154,773.064,297.179,780.549Z" transform="translate(-212.554 -508.924)"/><path class="c" d="M283.141,791.351c5.556,5.409,6.235,13.724,6.235,13.724s-8.33-.455-13.887-5.864-6.235-13.724-6.235-13.724S277.584,785.942,283.141,791.351Z" transform="translate(-195.541 -521.335)"/><path class="m" d="M345.842,527.668l-5.922.658a79.67,79.67,0,0,0,0,27.635c2.632,15.791,5.922,31.583,5.922,31.583s2.632,51.321,3.948,51.979,13.159,4.606,13.817.658.658-94.089.658-94.089l9.212,43.426s1.316,54.611,3.948,54.611,11.185-.658,11.185-5.264,1.974-65.139,1.974-65.139-.658-44.742-3.29-46.058S345.842,527.668,345.842,527.668Z" transform="translate(-238.83 -360.374)"/><path class="m" d="M356.585,819.535s-5.922-.658-7.238,0-3.29,5.264,0,7.9,11.843,6.58,14.475,6.58a13.611,13.611,0,0,0,5.264-1.316l-1.316-11.185Z" transform="translate(-244.31 -542.361)"/><path class="m" d="M441.307,820.913l.658,9.212s8.554,1.316,9.212,0,7.238-4.606,7.9-5.264,1.316-7.9-2.632-8.554-5.264,1.316-5.264,1.316Z" transform="translate(-302.713 -540.448)"/><path class="n" d="M468.955,235.576s14.385-9.251,14.052-15.606-9-26.394-9-26.394-6.784-14.1-9.481-8.34,3.545,11.9,3.545,11.9l4.029,19.657-10.949,10.445Z" transform="translate(-315.07 -146.575)"/><circle class="n" cx="11.843" cy="11.843" r="11.843" transform="translate(106.354 52.149)"/><path class="n" d="M371.515,267.021l1.974,12.5,14.475-2.632s-.658-12.5-.658-13.817S371.515,267.021,371.515,267.021Z" transform="translate(-259.239 -195.79)"/><path class="h" d="M340.425,302.251s16.449-3.948,18.423-2.632,11.843,2.632,11.843,2.632l11.185,17.107-3.29,21.713s-.658,34.872.658,40.794,8.554,6.58-6.58,7.9-17.765-.658-28.293,1.974-19.081-1.316-16.449-3.948,7.238-44.742,1.974-48.69-7.238-24.345-7.238-24.345S340.425,305.541,340.425,302.251Z" transform="translate(-228.807 -218.519)"/><path class="h" d="M444.8,302.495l1.974-1.974,3.948-3.948s12.83,5.593,12.172,7.567-4.935,13.488-4.935,13.488l-5.922,1.974Z" transform="translate(-304.886 -216.789)"/><path class="m" d="M367.037,211.6l-.121-.949a7.458,7.458,0,0,0-2.37.372,3.894,3.894,0,0,1,.146-1.7,7.581,7.581,0,0,0-2.194.954l-.478-1.731-6.578,3.242c-2.361,1.164-4.85,2.442-6.2,4.7-1.5,2.519-1.243,5.757-.214,8.506s2.738,5.181,4.108,7.776A19.428,19.428,0,0,0,355,235.939c2.483,3.1,7.316,3.72,10.816,1.852a6.259,6.259,0,0,0,3-3.084,20.041,20.041,0,0,0,.6-2.554c.433-1.769.936-5.42,2.372-6.538.632-.492,1.885,1.14,2.409.534,1.346-1.558,1.064-3.961.228-5.843a42.634,42.634,0,0,0-2.807-5.474A25.939,25.939,0,0,0,367.037,211.6Z" transform="translate(-244.706 -161.951)"/><path class="n" d="M271.637,382.069S255.845,397.2,257.819,405.1s17.765,30.924,17.765,30.924,15.133,7.9,17.107,0-10.527-5.922-10.527-5.922l-9.87-23.687,11.185-15.791Z" transform="translate(-188.311 -270.045)"/><path class="h" d="M307.731,341.51l-7.9-1.316s-5.922,6.58-7.9,9.212-5.922,9.212-5.922,9.212l13.817,9.87L310.363,357.3Z" transform="translate(-205.983 -243.961)"/></svg>